<?xml version="1.0" encoding="utf-8"?>
<!-- Generator: Adobe Illustrator 25.4.1, SVG Export Plug-In . SVG Version: 6.00 Build 0)  -->
<svg version="1.1" id="レイヤー_1" xmlns="http://www.w3.org/2000/svg" xmlns:xlink="http://www.w3.org/1999/xlink" x="0px"
	 y="0px" viewBox="0 0 178.7 38.8" style="enable-background:new 0 0 178.7 38.8;" xml:space="preserve">
<style type="text/css">
	.st0{fill:#666666;}
</style>
<g>
	<path class="st0" d="M3.6,20.6C2.5,19,1.5,17,0.3,15l2.2-1.2c1,0.8,2,1.2,3,1c0.6,0,2.4-0.8,5.3-2c1-2.2,1.6-4.3,2-6.3
		c0.2-0.8,0-2-1-3.4l2-1.8c2.4,1.8,4.3,3.4,5.5,4.7c-1.6,1.8-2.6,3.6-3.2,5.1c2.2-0.6,4-0.2,5.3,1s2.2,2.4,2.4,4.2
		c0.2,1.8,0.2,4-0.2,6.7c-0.2,2.6-0.6,4.9-1.4,7.1c-0.8,2.8-2,4.7-3.8,5.9s-4,1.2-6.5,0.2c0-2-1-3.6-3.2-4.5l1.6-2.2l4.3,1.6
		c1.2,0.4,2.2,0,2.6-1.4c0.6-1.4,1.2-3.4,1.8-6.1c0.4-3,0.6-5.3,0.4-7.1c-0.4-1.8-2-2-4.9-0.4c-1.6,4.3-4.2,11.3-7.7,21.4l-5.1-1.8
		c3-7.1,5.1-12.9,6.9-17.2C7,19,5.4,19.8,3.6,20.6z M29.4,17c-1-2.2-2.6-4.5-4.9-6.7l2.2-1.8c1.8,1.4,3.6,2.8,5.1,4.5
		c2.2,2.8,4.2,5.9,5.3,9.7l-4.9,2.2C31.7,22.4,30.7,19.8,29.4,17z"/>
	<path class="st0" d="M53.1,11.3l2.4-1.6c1.8,0.6,3.6,1.8,5.5,3C59.6,16,58.8,19,58.2,22c2-1.6,4.2-2.8,6.3-3.4
		c3.4-1.2,6.1-1.2,8.9-0.2c2.4,0.8,4,2.4,4.7,4.5s0.6,4.2-0.6,6.1c-2.6,5.1-8.5,7.3-18,6.9l-1.2-2.4c6.1-0.6,10.1-1.8,12.3-3.6
		c1.6-1.2,2.2-2.8,2.2-4.5s-1-3.2-2.8-3.8c-1.2-0.4-2.6-0.2-4.5,0.6c-2.2,0.8-4.3,2-6.5,3.8c-1,0.8-1.8,2.2-2.4,4.2l-4.5-2.8
		c1.2-3.2,2.2-7.5,3-13C55.1,13.7,54.3,12.5,53.1,11.3z M70.3,6l0.2,4.9c-2.2-0.6-3.8-0.8-4.5-0.6c-0.8,0.2-2,0.6-3.6,1.6l-2.6-2.2
		l3.4-1.6C61.8,7.1,60,5.4,58,3l2.4-1.8C63.4,3.8,66.7,5.4,70.3,6z"/>
	<path class="st0" d="M100.5,34.8c-2.8-1.6-4.9-3-6.5-4.3l1.4-2.2c1.4,0.4,2.4,0.6,3,0.6c0.6,0,1.8-0.8,3.4-2
		c2.2-1.8,4.7-3.4,7.3-4.9l2,2C106.3,27.7,102.9,31.3,100.5,34.8z M113.4,5.2c1.2,0.8,3.4,1.8,6.5,2.8l-0.2,5.3
		c-2.4-0.4-4.5-0.2-6.1,0.6c-1.6,0.8-2.2,1.6-1.8,2.2c0.4,0.8,1.6,1.8,3.4,3c1.4,0.8,2.4,2,3.4,3.4c1.4,2.4,1.8,5.3,1.4,8.9
		c-0.4,2.2-1.4,3.8-3.4,4.5c-2.2,0.8-4.5,1-7.3,0.4c0.2-1.4-0.2-2.4-1.4-3l-3.4-1.8l1.6-2l5.7,1.4c1.8,0.4,2.8-0.2,3-1.8
		c0.4-2.8-0.6-5.1-2.8-6.7c-2.2-1.6-3.4-2.6-3.6-3.2c-0.8-1.4-0.8-2.8-0.2-4.2c0.8-1.4,2.4-2.8,4.7-4.5c-1.2-1-2-1.8-2.4-2.4
		c-0.8-1.2-1.8-2.6-2.4-4.5l2.2-1.8C111.4,3.4,112.4,4.6,113.4,5.2z M119.3,22l1.8-1.8c2.8,0.8,4.9,2,6.3,3.2
		c2.6,2.2,4.7,4.5,6.1,7.7c-1.4,1.2-3.4,2-5.9,2.8C126.2,28.9,123.3,24.9,119.3,22z"/>
	<path class="st0" d="M164.2,26.5c2.2,0.6,4.2,1.8,5.7,4c1.8-0.6,2.6-1.8,3-3.6c0.4-2.2-0.2-4-2.2-5.5c-1.4-1.2-3.2-1.6-5.3-1.4
		c-2,0.2-3.8,1-5.1,2.2c-2.2,1.8-4.5,4.5-7.3,8.1l-4.5-3.6l17.4-18.4c-3.4,0.4-6.3,1.4-9.1,2.8c-1.4-1.6-2.4-3.4-3.4-5.3l2.2-1.6
		c1.2,0.8,2.2,1.2,2.8,1.4c0.6,0,1.8-0.2,3.6-0.6c2.4-0.6,4.7-1.4,7.3-2.2l5.1,4.3c-1.8,1.4-3.4,2.6-4.3,3.8l-4.7,5.1
		c0.8,0,1.8-0.2,3-0.2c2.6,0,4.9,0.6,6.7,2.2c2,1.6,3.2,3.4,3.4,5.7c0.4,3,0,5.3-1.6,7.3c-1.6,2.2-3.6,3.6-6.1,4.3
		c-2.8,0.8-5.3,1-8.1,0.6c-2.6-0.4-4.5-1.4-5.3-2.6c-0.6-0.8-1-1.8-0.8-2.8c0-1.2,0.4-2.2,1.2-2.8C158.9,26.1,161.2,25.7,164.2,26.5
		z M161.6,31.9c1.2,0.6,2.4,0.6,3.4,0.6c-0.8-0.8-1.8-1.6-3-2c-0.8-0.4-1.4-0.4-1.8,0.4C160.4,31.1,160.8,31.5,161.6,31.9z"/>
</g>
</svg>
