<?xml version="1.0" encoding="utf-8"?>
<!-- Generator: Adobe Illustrator 25.4.1, SVG Export Plug-In . SVG Version: 6.00 Build 0)  -->
<svg version="1.1" id="レイヤー_1" xmlns="http://www.w3.org/2000/svg" xmlns:xlink="http://www.w3.org/1999/xlink" x="0px"
	 y="0px" viewBox="0 0 58.8 290.6" style="enable-background:new 0 0 58.8 290.6;" xml:space="preserve">
<style type="text/css">
	.st0{enable-background:new    ;}
	.st1{fill:#666666;}
</style>
<g class="st0">
	<path class="st1" d="M5.8,30.4c-1-2.9-2.9-5.8-4.8-8.7l2.9-1.9c1.9,1,2.9,1.9,4.8,1.9c1,0,3.8-1,8.7-2.9c1.9-3.8,2.9-6.7,2.9-9.6
		c0-1,0-2.9-1.9-4.8l2.9-2.9c3.8,1.9,6.7,3.8,9.6,6.7C28,10.2,27,13.1,26,16c2.9-1,5.8,0,8.7,1.9c1.9,1.9,3.8,3.8,3.8,6.7
		s0,5.8,0,10.6c0,3.8-1,7.7-1.9,10.6c-1.9,3.8-3.8,6.7-6.7,8.7c-2.9,1.9-5.8,1.9-10.6,0c0-3.8-1.9-5.8-4.8-7.7l1.9-3.8l6.7,1.9
		c1.9,1.9,3.8,1,3.8-1c1-1.9,1.9-4.8,2.9-9.6s1-7.7,1-10.6s-2.9-2.9-7.7,0c-2.9,5.8-6.7,17.3-12.5,32.7l-7.7-2.9
		c4.8-10.6,7.7-20.2,10.6-26.9C11.6,27.5,8.7,28.5,5.8,30.4z M46.2,24.6c-1.9-3.8-3.8-6.7-7.7-10.6l3.8-2.9c2.9,1.9,5.8,4.8,7.7,6.7
		c3.8,4.8,6.7,9.6,8.7,15.4l-7.7,3.8C49.1,33.3,48.2,28.5,46.2,24.6z"/>
	<path class="st1" d="M9.7,95.8l3.8-1.9c2.9,1,5.8,2.9,8.7,4.8c-1.9,4.8-3.8,9.6-3.8,14.4c2.9-1.9,6.7-3.8,9.6-4.8
		c4.8-1.9,9.6-1.9,13.5,0c3.8,1,5.8,3.8,7.7,6.7c1,2.9,1,6.7-1,9.6c-3.8,7.7-13.5,10.6-27.9,10.6l-1.9-3.8c9.6-1,15.4-2.9,19.2-5.8
		c1.9-1.9,3.8-3.8,3.8-6.7s-1-4.8-3.8-5.8c-1.9-1-3.8,0-6.7,1s-6.7,2.9-9.6,5.8c-1.9,1-2.9,3.8-3.8,6.7l-6.7-3.8
		c1.9-4.8,2.9-11.5,4.8-20.2C12.6,99.7,11.6,97.7,9.7,95.8z M36.6,88.1v7.7c-2.9-1.9-5.8-1.9-6.7-1.9s-2.9,1-5.8,1.9l-3.8-2.9
		l4.8-1.9c-1.9-1.9-4.8-3.8-7.7-7.7l3.8-2.9C26,84.3,30.8,87.2,36.6,88.1z"/>
	<path class="st1" d="M8.7,210.3c-3.8-1.9-7.7-4.8-9.6-6.7l1.9-2.9c1.9,1,3.8,1,4.8,1s2.9-1,4.8-2.9c3.8-2.9,6.7-4.8,10.6-7.7
		l2.9,2.9C17.4,199.7,12.6,205.5,8.7,210.3z M28.9,165.1c1.9,1,4.8,2.9,9.6,3.8v8.7c-3.8-1-6.7,0-9.6,1c-2.9,1-3.8,1.9-2.9,2.9
		c1,1,2.9,2.9,4.8,4.8c1.9,1,3.8,2.9,4.8,4.8c1.9,3.8,2.9,8.7,1.9,13.5c-1,2.9-1.9,5.8-4.8,6.7c-2.9,1-6.7,1.9-10.6,1
		c0-1.9,0-3.8-1.9-4.8l-4.8-2.9l1.9-2.9l8.7,1.9c2.9,1,3.8,0,4.8-2.9c1-4.8-1-7.7-3.8-10.6c-2.9-1.9-4.8-3.8-5.8-4.8
		c-1-1.9-1-3.8,0-6.7c1-1.9,3.8-4.8,7.7-6.7c-1.9-1.9-2.9-2.9-3.8-3.8c-1-1.9-2.9-3.8-3.8-6.7l2.9-2.9
		C25.1,162.2,27,164.1,28.9,165.1z M37.6,191.1l2.9-2.9c4.8,1,7.7,2.9,9.6,4.8c3.8,2.9,6.7,6.7,9.6,12.5c-1.9,1.9-4.8,2.9-8.7,3.8
		C48.2,201.6,43.4,195.9,37.6,191.1z"/>
	<path class="st1" d="M28.9,274.8c2.9,1,6.7,2.9,8.7,5.8c2.9-1,3.8-2.9,4.8-5.8c1-2.9,0-5.8-2.9-8.7c-1.9-1.9-4.8-1.9-8.7-1.9
		c-2.9,0-5.8,1.9-7.7,3.8c-2.9,2.9-6.7,6.7-10.6,12.5l-6.7-5.8l26.9-28.9c-4.8,1-9.6,1.9-14.4,3.8c-1.9-1.9-3.8-4.8-4.8-8.7l1.9-1
		c1.9,1,2.9,1.9,3.8,1.9s2.9,0,5.8-1c3.8-1,7.7-1.9,10.6-3.8l7.7,6.7c-2.9,1.9-4.8,3.8-6.7,5.8l-6.7,8.7c1,0,2.9,0,4.8,0
		c3.8,0,7.7,1,10.6,2.9c2.9,1.9,4.8,4.8,4.8,8.7c1,4.8,0,8.7-1.9,11.5c-1.9,2.9-5.8,5.8-9.6,6.7s-8.7,1-12.5,1
		c-3.8-1-6.7-1.9-8.7-3.8c-1-1.9-1.9-2.9-1.9-4.8c0-1.9,1-2.9,1.9-3.8C20.3,274.8,24.1,273.8,28.9,274.8z M25.1,283.4
		c1.9,1,3.8,1,4.8,1c-1-1-2.9-1.9-4.8-2.9c-1-1-1.9-1-2.9,1C23.2,282.4,24.1,282.4,25.1,283.4z"/>
</g>
</svg>
